<?xml version="1.0" encoding="UTF-8" standalone="no"?>
<!DOCTYPE svg PUBLIC "-//W3C//DTD SVG 1.1//EN"
 "http://www.w3.org/Graphics/SVG/1.1/DTD/svg11.dtd">
<!-- Generated by graphviz version 2.43.0 (0)
 -->
<!-- Title: ECU Network Pages: 1 -->
<svg width="305pt" height="131pt"
 viewBox="0.00 0.00 305.28 131.00" xmlns="http://www.w3.org/2000/svg" xmlns:xlink="http://www.w3.org/1999/xlink">
<g id="graph0" class="graph" transform="scale(1 1) rotate(0) translate(4 127)">
<title>ECU Network</title>
<polygon fill="white" stroke="transparent" points="-4,4 -4,-127 301.28,-127 301.28,4 -4,4"/>
<!-- MultiFunction_Switch -->
<g id="node1" class="node">
<title>MultiFunction_Switch</title>
<ellipse fill="none" stroke="black" cx="168.28" cy="-105" rx="112.38" ry="18"/>
<text text-anchor="middle" x="168.28" y="-101.3" font-family="Times,serif" font-size="14.00">MultiFunction_Switch</text>
</g>
<!-- ICU -->
<g id="node2" class="node">
<title>ICU</title>
<ellipse fill="none" stroke="black" cx="168.28" cy="-18" rx="28.7" ry="18"/>
<text text-anchor="middle" x="168.28" y="-14.3" font-family="Times,serif" font-size="14.00">ICU</text>
</g>
<!-- MultiFunction_Switch&#45;&gt;ICU -->
<g id="edge1" class="edge">
<title>MultiFunction_Switch&#45;&gt;ICU</title>
<path fill="none" stroke="black" d="M77.46,-94.27C46.3,-88.91 16.83,-80.86 7.28,-69 -26.53,-27.06 71.49,-19.58 129.26,-18.69"/>
<polygon fill="black" stroke="black" points="129.57,-22.19 139.53,-18.59 129.5,-15.19 129.57,-22.19"/>
<text text-anchor="middle" x="49.78" y="-57.8" font-family="Times,serif" font-size="14.00">LightState3</text>
</g>
<!-- MultiFunction_Switch&#45;&gt;ICU -->
<g id="edge2" class="edge">
<title>MultiFunction_Switch&#45;&gt;ICU</title>
<path fill="none" stroke="black" d="M132.95,-87.75C125.86,-82.78 119.35,-76.57 115.28,-69 107.61,-54.75 120.83,-42.26 135.99,-33.33"/>
<polygon fill="black" stroke="black" points="137.83,-36.31 144.99,-28.49 134.52,-30.14 137.83,-36.31"/>
<text text-anchor="middle" x="157.78" y="-57.8" font-family="Times,serif" font-size="14.00">LightState4</text>
</g>
<!-- MultiFunction_Switch&#45;&gt;ICU -->
<g id="edge3" class="edge">
<title>MultiFunction_Switch&#45;&gt;ICU</title>
<path fill="none" stroke="black" d="M188.48,-86.93C193.26,-81.72 197.71,-75.6 200.28,-69 204.22,-58.85 199.45,-48.56 192.5,-39.98"/>
<polygon fill="black" stroke="black" points="195.05,-37.58 185.68,-32.63 189.92,-42.34 195.05,-37.58"/>
<text text-anchor="middle" x="217.28" y="-57.8" font-family="Times,serif" font-size="14.00">CRC</text>
</g>
<!-- MultiFunction_Switch&#45;&gt;ICU -->
<g id="edge4" class="edge">
<title>MultiFunction_Switch&#45;&gt;ICU</title>
<path fill="none" stroke="black" d="M216.13,-88.52C224.54,-83.62 232.21,-77.24 237.28,-69 248.2,-51.21 226.11,-37.84 204.09,-29.42"/>
<polygon fill="black" stroke="black" points="205.02,-26.04 194.42,-26.01 202.69,-32.64 205.02,-26.04"/>
<text text-anchor="middle" x="268.28" y="-57.8" font-family="Times,serif" font-size="14.00">Counter</text>
</g>
</g>
</svg>
